<svg id="Layer_2" data-name="Layer 2" xmlns="http://www.w3.org/2000/svg" xmlns:xlink="http://www.w3.org/1999/xlink" viewBox="0 0 1047.75 310.98"><defs><style>.cls-1{fill:url(#linear-gradient);}.cls-2{fill:url(#linear-gradient-2);}.cls-3{fill:url(#linear-gradient-3);}.cls-4{fill:url(#linear-gradient-4);}.cls-5{fill:url(#linear-gradient-5);}.cls-6{isolation:isolate;font-size:171.49px;font-family:Magneto-Bold, Magneto;font-weight:700;}</style><linearGradient id="linear-gradient" x1="404.42" y1="2271.02" x2="384.91" y2="2193.01" gradientTransform="matrix(-1, 0, 0, 1, 1280.68, -2223.98)" gradientUnits="userSpaceOnUse"><stop offset="0.24" stop-color="#f15a24"/><stop offset="1" stop-color="#08aedd"/></linearGradient><linearGradient id="linear-gradient-2" x1="803.36" y1="2271.02" x2="783.85" y2="2193.01" gradientTransform="translate(-631.99 -2223.98)" xlink:href="#linear-gradient"/><linearGradient id="linear-gradient-3" x1="347.53" y1="2346.61" x2="353.11" y2="2244.99" xlink:href="#linear-gradient"/><linearGradient id="linear-gradient-4" x1="746.47" y1="2346.61" x2="752.05" y2="2244.99" gradientTransform="translate(-631.99 -2223.98)" xlink:href="#linear-gradient"/><linearGradient id="linear-gradient-5" x1="429.28" y1="1791.54" x2="837.31" y2="2529.29" gradientTransform="matrix(-1, 0, 0, 1, 1716.81, -1917.96)" xlink:href="#linear-gradient"/></defs><title>mandat</title><polygon class="cls-1" points="816.49 0 959.57 0 925.06 60.98 816.49 0"/><polygon class="cls-2" points="231.15 0 88.07 0 122.58 60.98 231.15 0"/><polygon class="cls-3" points="1047.64 83.56 816.49 0 816.49 121.96 1047.64 83.56"/><polygon class="cls-4" points="0 83.56 231.15 0 231.15 121.96 0 83.56"/><path class="cls-5" d="M1483.87,389.62,1442.36,617H477.64L436.13,389.62Z" transform="translate(-436.13 -306.02)"/><text class="cls-6" transform="translate(231.14 249.55) scale(0.81 1)">Mandat</text></svg>